<svg xmlns="http://www.w3.org/2000/svg" viewBox="0 0 1024 600" fill="none">

  <!-- ─── Background ─── -->
  <rect width="1024" height="600" fill="#0c0c0c"/>

  <!-- ─── PANEL 1: Script Grid (x=40–364) ─── -->
  <!-- Panel bg -->
  <rect x="40" y="20" width="320" height="560" fill="#1a1a1a" stroke="#2a2826" stroke-width="1"/>
  <!-- Cream top stripe -->
  <line x1="40" y1="20" x2="360" y2="20" stroke="#d4ccc0" stroke-width="1" opacity="0.3"/>

  <!-- Header bar -->
  <rect x="40" y="20" width="320" height="32" fill="#141414"/>
  <!-- Diamond logo mark -->
  <rect x="54" y="30" width="10" height="10" fill="none" stroke="#d4ccc0" stroke-width="1.2" transform="rotate(45 59 35)"/>
  <text x="58" y="39" font-family="Inter, system-ui, sans-serif" font-size="7" font-weight="700" fill="#d4ccc0" text-anchor="middle">D</text>
  <!-- Title -->
  <text x="74" y="40" font-family="Inter, system-ui, sans-serif" font-size="11" font-weight="700" fill="#e8e0d4" letter-spacing="2">DONY'S</text>

  <!-- Search bar -->
  <rect x="52" y="62" width="296" height="24" fill="#1a1a1a" stroke="#2a2826" stroke-width="1"/>
  <text x="68" y="78" font-family="Inter, system-ui, sans-serif" font-size="9" fill="#4a4640">Search scripts...</text>
  <text x="58" y="79" font-family="Inter, system-ui, sans-serif" font-size="9" fill="#4a4640">⌕</text>

  <!-- Category label: LAYER -->
  <text x="52" y="108" font-family="Inter, system-ui, sans-serif" font-size="9" font-weight="600" fill="#4a4640" letter-spacing="1.5">LAYER</text>

  <!-- 3x3 Script Buttons grid -->
  <!-- Row 1 -->
  <!-- Add Null (hover state) -->
  <rect x="52" y="116" width="56" height="56" fill="#242424" stroke="#2a2826" stroke-width="1"/>
  <line x1="52" y1="116" x2="52" y2="172" stroke="#d4ccc0" stroke-width="2"/>
  <text x="80" y="143" font-family="Inter, system-ui, sans-serif" font-size="16" fill="#d4ccc0" text-anchor="middle">⊕</text>
  <text x="80" y="161" font-family="Inter, system-ui, sans-serif" font-size="7" fill="#8a8478" text-anchor="middle">Add Null</text>

  <!-- Auto Parent -->
  <rect x="116" y="116" width="56" height="56" fill="#1a1a1a" stroke="#2a2826" stroke-width="1"/>
  <text x="144" y="143" font-family="Inter, system-ui, sans-serif" font-size="16" fill="#d4ccc0" text-anchor="middle">⊞</text>
  <text x="144" y="161" font-family="Inter, system-ui, sans-serif" font-size="7" fill="#8a8478" text-anchor="middle">Auto Parent</text>

  <!-- Merge -->
  <rect x="180" y="116" width="56" height="56" fill="#1a1a1a" stroke="#2a2826" stroke-width="1"/>
  <text x="208" y="143" font-family="Inter, system-ui, sans-serif" font-size="16" fill="#d4ccc0" text-anchor="middle">⊡</text>
  <text x="208" y="161" font-family="Inter, system-ui, sans-serif" font-size="7" fill="#8a8478" text-anchor="middle">Merge</text>

  <!-- Row 2 -->
  <!-- Anchor TL -->
  <rect x="52" y="180" width="56" height="56" fill="#1a1a1a" stroke="#2a2826" stroke-width="1"/>
  <text x="80" y="207" font-family="Inter, system-ui, sans-serif" font-size="16" fill="#d4ccc0" text-anchor="middle">◸</text>
  <text x="80" y="225" font-family="Inter, system-ui, sans-serif" font-size="7" fill="#8a8478" text-anchor="middle">Anchor TL</text>

  <!-- Sequence -->
  <rect x="116" y="180" width="56" height="56" fill="#1a1a1a" stroke="#2a2826" stroke-width="1"/>
  <text x="144" y="207" font-family="Inter, system-ui, sans-serif" font-size="16" fill="#d4ccc0" text-anchor="middle">▤</text>
  <text x="144" y="225" font-family="Inter, system-ui, sans-serif" font-size="7" fill="#8a8478" text-anchor="middle">Sequence</text>

  <!-- Distribute -->
  <rect x="180" y="180" width="56" height="56" fill="#1a1a1a" stroke="#2a2826" stroke-width="1"/>
  <text x="208" y="207" font-family="Inter, system-ui, sans-serif" font-size="16" fill="#d4ccc0" text-anchor="middle">⊟</text>
  <text x="208" y="225" font-family="Inter, system-ui, sans-serif" font-size="7" fill="#8a8478" text-anchor="middle">Distribute</text>

  <!-- Row 3 -->
  <!-- Copy Keys -->
  <rect x="52" y="244" width="56" height="56" fill="#1a1a1a" stroke="#2a2826" stroke-width="1"/>
  <text x="80" y="271" font-family="Inter, system-ui, sans-serif" font-size="16" fill="#d4ccc0" text-anchor="middle">◈</text>
  <text x="80" y="289" font-family="Inter, system-ui, sans-serif" font-size="7" fill="#8a8478" text-anchor="middle">Copy Keys</text>

  <!-- Time Remap -->
  <rect x="116" y="244" width="56" height="56" fill="#1a1a1a" stroke="#2a2826" stroke-width="1"/>
  <text x="144" y="271" font-family="Inter, system-ui, sans-serif" font-size="16" fill="#d4ccc0" text-anchor="middle">◷</text>
  <text x="144" y="289" font-family="Inter, system-ui, sans-serif" font-size="7" fill="#8a8478" text-anchor="middle">Time Remap</text>

  <!-- Freeze -->
  <rect x="180" y="244" width="56" height="56" fill="#1a1a1a" stroke="#2a2826" stroke-width="1"/>
  <text x="208" y="271" font-family="Inter, system-ui, sans-serif" font-size="16" fill="#d4ccc0" text-anchor="middle">❄</text>
  <text x="208" y="289" font-family="Inter, system-ui, sans-serif" font-size="7" fill="#8a8478" text-anchor="middle">Freeze</text>

  <!-- Category label: TRANSFORM -->
  <text x="52" y="322" font-family="Inter, system-ui, sans-serif" font-size="9" font-weight="600" fill="#4a4640" letter-spacing="1.5">TRANSFORM</text>

  <!-- Transform row -->
  <rect x="52" y="330" width="56" height="56" fill="#1a1a1a" stroke="#2a2826" stroke-width="1"/>
  <text x="80" y="357" font-family="Inter, system-ui, sans-serif" font-size="14" fill="#d4ccc0" text-anchor="middle">⤡</text>
  <text x="80" y="375" font-family="Inter, system-ui, sans-serif" font-size="7" fill="#8a8478" text-anchor="middle">Scale Fit</text>

  <rect x="116" y="330" width="56" height="56" fill="#1a1a1a" stroke="#2a2826" stroke-width="1"/>
  <text x="144" y="357" font-family="Inter, system-ui, sans-serif" font-size="14" fill="#d4ccc0" text-anchor="middle">↻</text>
  <text x="144" y="375" font-family="Inter, system-ui, sans-serif" font-size="7" fill="#8a8478" text-anchor="middle">Rotate 90</text>

  <rect x="180" y="330" width="56" height="56" fill="#1a1a1a" stroke="#2a2826" stroke-width="1"/>
  <text x="208" y="357" font-family="Inter, system-ui, sans-serif" font-size="14" fill="#d4ccc0" text-anchor="middle">⊞</text>
  <text x="208" y="375" font-family="Inter, system-ui, sans-serif" font-size="7" fill="#8a8478" text-anchor="middle">Flip H</text>

  <!-- Panel 1 footer -->
  <rect x="40" y="530" width="320" height="50" fill="#141414" stroke="none"/>
  <line x1="40" y1="530" x2="360" y2="530" stroke="#2a2826" stroke-width="1"/>
  <rect x="52" y="542" width="96" height="22" fill="#d4ccc0"/>
  <text x="100" y="557" font-family="Inter, system-ui, sans-serif" font-size="10" font-weight="600" fill="#0c0c0c" text-anchor="middle">Run Script</text>

  <!-- ─── PANEL 2: Library (x=376–676) ─── -->
  <rect x="376" y="20" width="300" height="560" fill="#1a1a1a" stroke="#2a2826" stroke-width="1"/>
  <line x1="376" y1="20" x2="676" y2="20" stroke="#d4ccc0" stroke-width="1" opacity="0.3"/>

  <!-- Header bar -->
  <rect x="376" y="20" width="300" height="32" fill="#141414"/>
  <text x="392" y="40" font-family="Inter, system-ui, sans-serif" font-size="11" font-weight="700" fill="#e8e0d4" letter-spacing="2">DONY'S LIBRARY</text>

  <!-- Tab bar -->
  <rect x="376" y="52" width="300" height="24" fill="#141414"/>
  <line x1="376" y1="76" x2="676" y2="76" stroke="#2a2826" stroke-width="1"/>
  <text x="406" y="68" font-family="Inter, system-ui, sans-serif" font-size="10" fill="#8a8478" text-anchor="middle">GRADIENT</text>
  <!-- TEXT tab active -->
  <text x="461" y="68" font-family="Inter, system-ui, sans-serif" font-size="10" fill="#e8e0d4" text-anchor="middle">TEXT</text>
  <line x1="446" y1="76" x2="476" y2="76" stroke="#d4ccc0" stroke-width="2"/>
  <text x="520" y="68" font-family="Inter, system-ui, sans-serif" font-size="10" fill="#8a8478" text-anchor="middle">ASSETS</text>

  <!-- Category pills -->
  <rect x="388" y="84" width="30" height="16" fill="#1a1a1a" stroke="#d4ccc0" stroke-width="1"/>
  <text x="403" y="95" font-family="Inter, system-ui, sans-serif" font-size="8" fill="#d4ccc0" text-anchor="middle">Slide</text>
  <rect x="424" y="84" width="34" height="16" fill="#141414" stroke="#2a2826" stroke-width="1"/>
  <text x="441" y="95" font-family="Inter, system-ui, sans-serif" font-size="8" fill="#8a8478" text-anchor="middle">Scale</text>
  <rect x="464" y="84" width="34" height="16" fill="#141414" stroke="#2a2826" stroke-width="1"/>
  <text x="481" y="95" font-family="Inter, system-ui, sans-serif" font-size="8" fill="#8a8478" text-anchor="middle">Rotate</text>
  <rect x="504" y="84" width="28" height="16" fill="#141414" stroke="#2a2826" stroke-width="1"/>
  <text x="518" y="95" font-family="Inter, system-ui, sans-serif" font-size="8" fill="#8a8478" text-anchor="middle">Fade</text>
  <rect x="538" y="84" width="44" height="16" fill="#141414" stroke="#2a2826" stroke-width="1"/>
  <text x="560" y="95" font-family="Inter, system-ui, sans-serif" font-size="8" fill="#8a8478" text-anchor="middle">Tracking</text>

  <!-- Preset list rows (height 36 each) -->
  <!-- Row 1: Slide Up -->
  <rect x="376" y="108" width="300" height="36" fill="#1a1a1a"/>
  <line x1="376" y1="144" x2="676" y2="144" stroke="#2a2826" stroke-width="1"/>
  <text x="394" y="124" font-family="Inter, system-ui, sans-serif" font-size="12" fill="#d4ccc0">↑</text>
  <text x="412" y="122" font-family="Inter, system-ui, sans-serif" font-size="10" fill="#c8c0b4">Slide Up</text>
  <text x="412" y="136" font-family="Inter, system-ui, sans-serif" font-size="8" fill="#8a8478">Position Y · 0.5s</text>
  <rect x="600" y="115" width="20" height="14" fill="#141414" stroke="#2a2826" stroke-width="1"/>
  <text x="610" y="125" font-family="Inter, system-ui, sans-serif" font-size="7" fill="#8a8478" text-anchor="middle">IN</text>
  <rect x="624" y="115" width="22" height="14" fill="#141414" stroke="#2a2826" stroke-width="1"/>
  <text x="635" y="125" font-family="Inter, system-ui, sans-serif" font-size="7" fill="#8a8478" text-anchor="middle">OUT</text>
  <text x="658" y="130" font-family="Inter, system-ui, sans-serif" font-size="11" fill="#8a8478">›</text>

  <!-- Row 2: Bounce In (selected) -->
  <rect x="376" y="144" width="300" height="36" fill="#242424"/>
  <line x1="376" y1="180" x2="676" y2="180" stroke="#2a2826" stroke-width="1"/>
  <line x1="376" y1="144" x2="376" y2="180" stroke="#d4ccc0" stroke-width="2"/>
  <text x="394" y="160" font-family="Inter, system-ui, sans-serif" font-size="12" fill="#d4ccc0">↗</text>
  <text x="412" y="158" font-family="Inter, system-ui, sans-serif" font-size="10" font-weight="600" fill="#e8e0d4">Bounce In</text>
  <text x="412" y="172" font-family="Inter, system-ui, sans-serif" font-size="8" fill="#d4ccc0">Scale · 0.6s</text>
  <rect x="600" y="151" width="20" height="14" fill="#1a1a1a" stroke="#d4ccc0" stroke-width="1"/>
  <text x="610" y="161" font-family="Inter, system-ui, sans-serif" font-size="7" fill="#d4ccc0" text-anchor="middle">IN</text>
  <rect x="624" y="151" width="22" height="14" fill="#1a1a1a" stroke="#d4ccc0" stroke-width="1"/>
  <text x="635" y="161" font-family="Inter, system-ui, sans-serif" font-size="7" fill="#d4ccc0" text-anchor="middle">OUT</text>
  <text x="658" y="166" font-family="Inter, system-ui, sans-serif" font-size="11" fill="#d4ccc0">›</text>

  <!-- Row 3: Fade Up -->
  <rect x="376" y="180" width="300" height="36" fill="#1a1a1a"/>
  <line x1="376" y1="216" x2="676" y2="216" stroke="#2a2826" stroke-width="1"/>
  <text x="394" y="196" font-family="Inter, system-ui, sans-serif" font-size="12" fill="#d4ccc0">↑</text>
  <text x="412" y="194" font-family="Inter, system-ui, sans-serif" font-size="10" fill="#c8c0b4">Fade Up</text>
  <text x="412" y="208" font-family="Inter, system-ui, sans-serif" font-size="8" fill="#8a8478">Opacity · 0.4s</text>
  <rect x="600" y="187" width="20" height="14" fill="#141414" stroke="#2a2826" stroke-width="1"/>
  <text x="610" y="197" font-family="Inter, system-ui, sans-serif" font-size="7" fill="#8a8478" text-anchor="middle">IN</text>
  <rect x="624" y="187" width="22" height="14" fill="#141414" stroke="#2a2826" stroke-width="1"/>
  <text x="635" y="197" font-family="Inter, system-ui, sans-serif" font-size="7" fill="#8a8478" text-anchor="middle">OUT</text>
  <text x="658" y="202" font-family="Inter, system-ui, sans-serif" font-size="11" fill="#8a8478">›</text>

  <!-- Row 4: Slide Left -->
  <rect x="376" y="216" width="300" height="36" fill="#1a1a1a"/>
  <line x1="376" y1="252" x2="676" y2="252" stroke="#2a2826" stroke-width="1"/>
  <text x="394" y="232" font-family="Inter, system-ui, sans-serif" font-size="12" fill="#d4ccc0">←</text>
  <text x="412" y="230" font-family="Inter, system-ui, sans-serif" font-size="10" fill="#c8c0b4">Slide Left</text>
  <text x="412" y="244" font-family="Inter, system-ui, sans-serif" font-size="8" fill="#8a8478">Position X · 0.5s</text>
  <rect x="600" y="223" width="20" height="14" fill="#141414" stroke="#2a2826" stroke-width="1"/>
  <text x="610" y="233" font-family="Inter, system-ui, sans-serif" font-size="7" fill="#8a8478" text-anchor="middle">IN</text>
  <rect x="624" y="223" width="22" height="14" fill="#141414" stroke="#2a2826" stroke-width="1"/>
  <text x="635" y="233" font-family="Inter, system-ui, sans-serif" font-size="7" fill="#8a8478" text-anchor="middle">OUT</text>

  <!-- Row 5: Scale Up -->
  <rect x="376" y="252" width="300" height="36" fill="#1a1a1a"/>
  <line x1="376" y1="288" x2="676" y2="288" stroke="#2a2826" stroke-width="1"/>
  <text x="394" y="268" font-family="Inter, system-ui, sans-serif" font-size="12" fill="#d4ccc0">⊕</text>
  <text x="412" y="266" font-family="Inter, system-ui, sans-serif" font-size="10" fill="#c8c0b4">Scale Up</text>
  <text x="412" y="280" font-family="Inter, system-ui, sans-serif" font-size="8" fill="#8a8478">Scale · 0.5s</text>

  <!-- Row 6: Elastic Out -->
  <rect x="376" y="288" width="300" height="36" fill="#1a1a1a"/>
  <line x1="376" y1="324" x2="676" y2="324" stroke="#2a2826" stroke-width="1"/>
  <text x="394" y="304" font-family="Inter, system-ui, sans-serif" font-size="12" fill="#d4ccc0">⟲</text>
  <text x="412" y="302" font-family="Inter, system-ui, sans-serif" font-size="10" fill="#c8c0b4">Elastic Out</text>
  <text x="412" y="316" font-family="Inter, system-ui, sans-serif" font-size="8" fill="#8a8478">Scale + Rotation · 0.8s</text>

  <!-- Row 7: Tracking In -->
  <rect x="376" y="324" width="300" height="36" fill="#1a1a1a"/>
  <line x1="376" y1="360" x2="676" y2="360" stroke="#2a2826" stroke-width="1"/>
  <text x="394" y="340" font-family="Inter, system-ui, sans-serif" font-size="12" fill="#d4ccc0">⇔</text>
  <text x="412" y="338" font-family="Inter, system-ui, sans-serif" font-size="10" fill="#c8c0b4">Tracking In</text>
  <text x="412" y="352" font-family="Inter, system-ui, sans-serif" font-size="8" fill="#8a8478">Tracking · 0.6s</text>

  <!-- Panel 2 footer -->
  <rect x="376" y="530" width="300" height="50" fill="#141414"/>
  <line x1="376" y1="530" x2="676" y2="530" stroke="#2a2826" stroke-width="1"/>
  <rect x="388" y="542" width="80" height="22" fill="#d4ccc0"/>
  <text x="428" y="557" font-family="Inter, system-ui, sans-serif" font-size="10" font-weight="600" fill="#0c0c0c" text-anchor="middle">Apply</text>

  <!-- ─── PANEL 3: Graph Editor (x=692–992) ─── -->
  <rect x="692" y="20" width="300" height="560" fill="#1a1a1a" stroke="#2a2826" stroke-width="1"/>
  <line x1="692" y1="20" x2="992" y2="20" stroke="#d4ccc0" stroke-width="1" opacity="0.3"/>

  <!-- Header bar -->
  <rect x="692" y="20" width="300" height="32" fill="#141414"/>
  <text x="708" y="40" font-family="Inter, system-ui, sans-serif" font-size="11" font-weight="700" fill="#e8e0d4" letter-spacing="2">GRAPH EDITOR</text>

  <!-- Graph canvas (left column of panel 3) -->
  <rect x="704" y="60" width="180" height="200" fill="#111111" stroke="#2a2826" stroke-width="1"/>
  <!-- Grid lines horizontal -->
  <line x1="704" y1="110" x2="884" y2="110" stroke="#1a1a1a" stroke-width="0.5"/>
  <line x1="704" y1="160" x2="884" y2="160" stroke="#1a1a1a" stroke-width="0.5"/>
  <line x1="704" y1="210" x2="884" y2="210" stroke="#1a1a1a" stroke-width="0.5"/>
  <!-- Grid lines vertical -->
  <line x1="749" y1="60" x2="749" y2="260" stroke="#1a1a1a" stroke-width="0.5"/>
  <line x1="794" y1="60" x2="794" y2="260" stroke="#1a1a1a" stroke-width="0.5"/>
  <line x1="839" y1="60" x2="839" y2="260" stroke="#1a1a1a" stroke-width="0.5"/>
  <!-- Diagonal reference -->
  <line x1="704" y1="260" x2="884" y2="60" stroke="#3a3836" stroke-width="1" stroke-dasharray="4,3"/>
  <!-- Handle dashed lines -->
  <line x1="704" y1="260" x2="730" y2="180" stroke="#3a3836" stroke-width="1" stroke-dasharray="3,2"/>
  <line x1="884" y1="60" x2="858" y2="130" stroke="#3a3836" stroke-width="1" stroke-dasharray="3,2"/>
  <!-- Main Ease Out bezier curve -->
  <path d="M704,260 C730,180 858,130 884,60" stroke="#d4ccc0" stroke-width="2" fill="none"/>
  <!-- Handle circles -->
  <circle cx="730" cy="180" r="5" fill="#d4ccc0" stroke="white" stroke-width="1.5"/>
  <circle cx="858" cy="130" r="5" fill="#d4ccc0" stroke="white" stroke-width="1.5"/>
  <!-- Endpoint circles -->
  <circle cx="704" cy="260" r="3" fill="#8a8478"/>
  <circle cx="884" cy="60" r="3" fill="#8a8478"/>
  <!-- Axis labels -->
  <text x="706" y="270" font-family="Consolas, 'SF Mono', monospace" font-size="8" fill="#4a4640">0</text>
  <text x="876" y="70" font-family="Consolas, 'SF Mono', monospace" font-size="8" fill="#4a4640">1</text>

  <!-- Value display box -->
  <rect x="704" y="268" width="180" height="20" fill="#141414" stroke="#2a2826" stroke-width="1"/>
  <text x="794" y="281" font-family="Consolas, 'SF Mono', monospace" font-size="7.5" fill="#d4ccc0" text-anchor="middle">cubic-bezier(0.00, 0.76, 0.60, 1.00)</text>

  <!-- Preset list (right column of panel 3) -->
  <text x="892" y="74" font-family="Inter, system-ui, sans-serif" font-size="9" font-weight="600" fill="#4a4640" letter-spacing="1.5">PRESETS</text>

  <!-- Preset rows -->
  <!-- Linear -->
  <rect x="892" y="82" width="88" height="24" fill="#1a1a1a" stroke="#2a2826" stroke-width="1"/>
  <text x="904" y="97" font-family="Inter, system-ui, sans-serif" font-size="9" fill="#8a8478">Linear</text>

  <!-- Ease In -->
  <rect x="892" y="106" width="88" height="24" fill="#1a1a1a" stroke="#2a2826" stroke-width="1"/>
  <text x="904" y="121" font-family="Inter, system-ui, sans-serif" font-size="9" fill="#8a8478">Ease In</text>

  <!-- Ease Out (selected) -->
  <rect x="892" y="130" width="88" height="24" fill="#242424" stroke="#2a2826" stroke-width="1"/>
  <line x1="892" y1="130" x2="892" y2="154" stroke="#d4ccc0" stroke-width="2"/>
  <text x="904" y="145" font-family="Inter, system-ui, sans-serif" font-size="9" font-weight="600" fill="#e8e0d4">Ease Out</text>

  <!-- Ease In-Out -->
  <rect x="892" y="154" width="88" height="24" fill="#1a1a1a" stroke="#2a2826" stroke-width="1"/>
  <text x="904" y="169" font-family="Inter, system-ui, sans-serif" font-size="9" fill="#8a8478">Ease In-Out</text>

  <!-- MOTION label -->
  <text x="892" y="192" font-family="Inter, system-ui, sans-serif" font-size="9" font-weight="600" fill="#4a4640" letter-spacing="1.5">MOTION</text>

  <rect x="892" y="198" width="88" height="24" fill="#1a1a1a" stroke="#2a2826" stroke-width="1"/>
  <text x="904" y="213" font-family="Inter, system-ui, sans-serif" font-size="9" fill="#8a8478">Overshoot</text>

  <rect x="892" y="222" width="88" height="24" fill="#1a1a1a" stroke="#2a2826" stroke-width="1"/>
  <text x="904" y="237" font-family="Inter, system-ui, sans-serif" font-size="9" fill="#8a8478">Bounce End</text>

  <rect x="892" y="246" width="88" height="24" fill="#1a1a1a" stroke="#2a2826" stroke-width="1"/>
  <text x="904" y="261" font-family="Inter, system-ui, sans-serif" font-size="9" fill="#8a8478">Spring</text>

  <!-- Panel 3 footer -->
  <rect x="692" y="530" width="300" height="50" fill="#141414"/>
  <line x1="692" y1="530" x2="992" y2="530" stroke="#2a2826" stroke-width="1"/>
  <rect x="704" y="542" width="80" height="22" fill="#d4ccc0"/>
  <text x="744" y="557" font-family="Inter, system-ui, sans-serif" font-size="10" font-weight="600" fill="#0c0c0c" text-anchor="middle">Apply</text>

</svg>
