<svg xmlns="http://www.w3.org/2000/svg" viewBox="0 0 128 128" width="128" height="128">
  <!--
    Pegboard with tools — 2px dots, 1px gap (3px pitch)
    Monochrome cream palette from Dony's AE Plugin tokens
    Industrial garage workshop aesthetic
  -->

  <!-- === PEGBOARD HOLES (evenly spaced grid) === -->
  <!-- Board area: x=16..112, y=16..112 -->
  <!-- Holes every 9px, 2x2 dots, subtle dark -->
  <g fill="#4a4640" opacity="0.3">
    <!-- Row 1 y=19 -->
    <rect x="22" y="19" width="2" height="2"/>
    <rect x="31" y="19" width="2" height="2"/>
    <rect x="40" y="19" width="2" height="2"/>
    <rect x="49" y="19" width="2" height="2"/>
    <rect x="58" y="19" width="2" height="2"/>
    <rect x="67" y="19" width="2" height="2"/>
    <rect x="76" y="19" width="2" height="2"/>
    <rect x="85" y="19" width="2" height="2"/>
    <rect x="94" y="19" width="2" height="2"/>
    <rect x="103" y="19" width="2" height="2"/>
    <!-- Row 2 y=28 -->
    <rect x="22" y="28" width="2" height="2"/>
    <rect x="31" y="28" width="2" height="2"/>
    <rect x="40" y="28" width="2" height="2"/>
    <rect x="49" y="28" width="2" height="2"/>
    <rect x="58" y="28" width="2" height="2"/>
    <rect x="67" y="28" width="2" height="2"/>
    <rect x="76" y="28" width="2" height="2"/>
    <rect x="85" y="28" width="2" height="2"/>
    <rect x="94" y="28" width="2" height="2"/>
    <rect x="103" y="28" width="2" height="2"/>
    <!-- Row 3 y=37 -->
    <rect x="22" y="37" width="2" height="2"/>
    <rect x="31" y="37" width="2" height="2"/>
    <rect x="40" y="37" width="2" height="2"/>
    <rect x="49" y="37" width="2" height="2"/>
    <rect x="58" y="37" width="2" height="2"/>
    <rect x="67" y="37" width="2" height="2"/>
    <rect x="76" y="37" width="2" height="2"/>
    <rect x="85" y="37" width="2" height="2"/>
    <rect x="94" y="37" width="2" height="2"/>
    <rect x="103" y="37" width="2" height="2"/>
    <!-- Row 4 y=46 -->
    <rect x="22" y="46" width="2" height="2"/>
    <rect x="31" y="46" width="2" height="2"/>
    <rect x="40" y="46" width="2" height="2"/>
    <rect x="49" y="46" width="2" height="2"/>
    <rect x="58" y="46" width="2" height="2"/>
    <rect x="67" y="46" width="2" height="2"/>
    <rect x="76" y="46" width="2" height="2"/>
    <rect x="85" y="46" width="2" height="2"/>
    <rect x="94" y="46" width="2" height="2"/>
    <rect x="103" y="46" width="2" height="2"/>
    <!-- Row 5 y=55 -->
    <rect x="22" y="55" width="2" height="2"/>
    <rect x="31" y="55" width="2" height="2"/>
    <rect x="40" y="55" width="2" height="2"/>
    <rect x="49" y="55" width="2" height="2"/>
    <rect x="58" y="55" width="2" height="2"/>
    <rect x="67" y="55" width="2" height="2"/>
    <rect x="76" y="55" width="2" height="2"/>
    <rect x="85" y="55" width="2" height="2"/>
    <rect x="94" y="55" width="2" height="2"/>
    <rect x="103" y="55" width="2" height="2"/>
    <!-- Row 6 y=64 -->
    <rect x="22" y="64" width="2" height="2"/>
    <rect x="31" y="64" width="2" height="2"/>
    <rect x="40" y="64" width="2" height="2"/>
    <rect x="49" y="64" width="2" height="2"/>
    <rect x="58" y="64" width="2" height="2"/>
    <rect x="67" y="64" width="2" height="2"/>
    <rect x="76" y="64" width="2" height="2"/>
    <rect x="85" y="64" width="2" height="2"/>
    <rect x="94" y="64" width="2" height="2"/>
    <rect x="103" y="64" width="2" height="2"/>
    <!-- Row 7 y=73 -->
    <rect x="22" y="73" width="2" height="2"/>
    <rect x="31" y="73" width="2" height="2"/>
    <rect x="40" y="73" width="2" height="2"/>
    <rect x="49" y="73" width="2" height="2"/>
    <rect x="58" y="73" width="2" height="2"/>
    <rect x="67" y="73" width="2" height="2"/>
    <rect x="76" y="73" width="2" height="2"/>
    <rect x="85" y="73" width="2" height="2"/>
    <rect x="94" y="73" width="2" height="2"/>
    <rect x="103" y="73" width="2" height="2"/>
    <!-- Row 8 y=82 -->
    <rect x="22" y="82" width="2" height="2"/>
    <rect x="31" y="82" width="2" height="2"/>
    <rect x="40" y="82" width="2" height="2"/>
    <rect x="49" y="82" width="2" height="2"/>
    <rect x="58" y="82" width="2" height="2"/>
    <rect x="67" y="82" width="2" height="2"/>
    <rect x="76" y="82" width="2" height="2"/>
    <rect x="85" y="82" width="2" height="2"/>
    <rect x="94" y="82" width="2" height="2"/>
    <rect x="103" y="82" width="2" height="2"/>
    <!-- Row 9 y=91 -->
    <rect x="22" y="91" width="2" height="2"/>
    <rect x="31" y="91" width="2" height="2"/>
    <rect x="40" y="91" width="2" height="2"/>
    <rect x="49" y="91" width="2" height="2"/>
    <rect x="58" y="91" width="2" height="2"/>
    <rect x="67" y="91" width="2" height="2"/>
    <rect x="76" y="91" width="2" height="2"/>
    <rect x="85" y="91" width="2" height="2"/>
    <rect x="94" y="91" width="2" height="2"/>
    <rect x="103" y="91" width="2" height="2"/>
    <!-- Row 10 y=100 -->
    <rect x="22" y="100" width="2" height="2"/>
    <rect x="31" y="100" width="2" height="2"/>
    <rect x="40" y="100" width="2" height="2"/>
    <rect x="49" y="100" width="2" height="2"/>
    <rect x="58" y="100" width="2" height="2"/>
    <rect x="67" y="100" width="2" height="2"/>
    <rect x="76" y="100" width="2" height="2"/>
    <rect x="85" y="100" width="2" height="2"/>
    <rect x="94" y="100" width="2" height="2"/>
    <rect x="103" y="100" width="2" height="2"/>
  </g>

  <!-- === TOOL 1: WRENCH (left) — hanging from peg at col3, row2 === -->
  <!-- Hook point at (40,28) -->
  <g fill="#e8e0d4">
    <!-- Hook -->
    <rect x="40" y="25" width="2" height="2"/>
    <!-- Shaft going down -->
    <rect x="40" y="28" width="2" height="2"/>
    <rect x="40" y="31" width="2" height="2"/>
    <rect x="40" y="34" width="2" height="2"/>
    <rect x="40" y="37" width="2" height="2"/>
    <rect x="40" y="40" width="2" height="2"/>
    <rect x="40" y="43" width="2" height="2"/>
    <rect x="40" y="46" width="2" height="2"/>
    <rect x="40" y="49" width="2" height="2"/>
    <rect x="40" y="52" width="2" height="2"/>
    <rect x="40" y="55" width="2" height="2"/>
    <rect x="40" y="58" width="2" height="2"/>
    <!-- Open jaw bottom -->
    <rect x="37" y="61" width="2" height="2"/>
    <rect x="43" y="61" width="2" height="2"/>
    <rect x="34" y="64" width="2" height="2"/>
    <rect x="46" y="64" width="2" height="2"/>
    <rect x="34" y="67" width="2" height="2"/>
    <rect x="46" y="67" width="2" height="2"/>
    <rect x="37" y="70" width="2" height="2"/>
    <rect x="43" y="70" width="2" height="2"/>
  </g>

  <!-- === TOOL 2: HAMMER (center-left) — hanging from peg at col5, row2 === -->
  <g fill="#c8c0b4">
    <!-- Hook -->
    <rect x="58" y="25" width="2" height="2" fill="#e8e0d4"/>
    <!-- Handle (vertical) -->
    <rect x="58" y="28" width="2" height="2"/>
    <rect x="58" y="31" width="2" height="2"/>
    <rect x="58" y="34" width="2" height="2"/>
    <rect x="58" y="37" width="2" height="2"/>
    <rect x="58" y="40" width="2" height="2"/>
    <rect x="58" y="43" width="2" height="2"/>
    <rect x="58" y="46" width="2" height="2"/>
    <rect x="58" y="49" width="2" height="2"/>
    <rect x="58" y="52" width="2" height="2" fill="#8a8478"/>
    <rect x="58" y="55" width="2" height="2" fill="#8a8478"/>
    <!-- Head -->
    <rect x="52" y="55" width="2" height="2" fill="#e8e0d4"/>
    <rect x="55" y="55" width="2" height="2" fill="#e8e0d4"/>
    <rect x="61" y="55" width="2" height="2" fill="#e8e0d4"/>
    <rect x="64" y="55" width="2" height="2" fill="#e8e0d4"/>
    <rect x="52" y="58" width="2" height="2" fill="#d4ccc0"/>
    <rect x="55" y="58" width="2" height="2" fill="#d4ccc0"/>
    <rect x="58" y="58" width="2" height="2" fill="#d4ccc0"/>
    <rect x="61" y="58" width="2" height="2" fill="#d4ccc0"/>
    <rect x="64" y="58" width="2" height="2" fill="#d4ccc0"/>
    <!-- Claw side -->
    <rect x="52" y="61" width="2" height="2" fill="#b8b0a4"/>
    <rect x="64" y="61" width="2" height="2" fill="#b8b0a4"/>
  </g>

  <!-- === TOOL 3: SCREWDRIVER (center-right) — hanging from peg at col7, row3 === -->
  <g fill="#d4ccc0">
    <!-- Hook -->
    <rect x="76" y="34" width="2" height="2" fill="#e8e0d4"/>
    <!-- Handle (thick, 2 dots wide) -->
    <rect x="76" y="37" width="2" height="2" fill="#b8b0a4"/>
    <rect x="79" y="37" width="2" height="2" fill="#b8b0a4"/>
    <rect x="76" y="40" width="2" height="2" fill="#c8c0b4"/>
    <rect x="79" y="40" width="2" height="2" fill="#c8c0b4"/>
    <rect x="76" y="43" width="2" height="2" fill="#c8c0b4"/>
    <rect x="79" y="43" width="2" height="2" fill="#c8c0b4"/>
    <rect x="76" y="46" width="2" height="2" fill="#b8b0a4"/>
    <rect x="79" y="46" width="2" height="2" fill="#b8b0a4"/>
    <!-- Shaft (thin, 1 dot wide) -->
    <rect x="77" y="49" width="2" height="2" fill="#8a8478"/>
    <rect x="77" y="52" width="2" height="2" fill="#8a8478"/>
    <rect x="77" y="55" width="2" height="2" fill="#8a8478"/>
    <rect x="77" y="58" width="2" height="2" fill="#8a8478"/>
    <rect x="77" y="61" width="2" height="2" fill="#8a8478"/>
    <rect x="77" y="64" width="2" height="2" fill="#8a8478"/>
    <rect x="77" y="67" width="2" height="2" fill="#8a8478"/>
    <!-- Tip -->
    <rect x="77" y="70" width="2" height="2" fill="#e8e0d4"/>
  </g>

  <!-- === TOOL 4: PLIERS (right) — hanging from peg at col9, row2 === -->
  <g fill="#d4ccc0">
    <!-- Hook -->
    <rect x="94" y="25" width="2" height="2" fill="#e8e0d4"/>
    <!-- Handle left -->
    <rect x="91" y="28" width="2" height="2" fill="#8a8478"/>
    <rect x="91" y="31" width="2" height="2" fill="#8a8478"/>
    <rect x="91" y="34" width="2" height="2" fill="#8a8478"/>
    <rect x="91" y="37" width="2" height="2" fill="#8a8478"/>
    <rect x="91" y="40" width="2" height="2" fill="#8a8478"/>
    <!-- Handle right -->
    <rect x="97" y="28" width="2" height="2" fill="#8a8478"/>
    <rect x="97" y="31" width="2" height="2" fill="#8a8478"/>
    <rect x="97" y="34" width="2" height="2" fill="#8a8478"/>
    <rect x="97" y="37" width="2" height="2" fill="#8a8478"/>
    <rect x="97" y="40" width="2" height="2" fill="#8a8478"/>
    <!-- Pivot joint -->
    <rect x="91" y="43" width="2" height="2" fill="#e8e0d4"/>
    <rect x="94" y="43" width="2" height="2" fill="#e8e0d4"/>
    <rect x="97" y="43" width="2" height="2" fill="#e8e0d4"/>
    <!-- Jaw opens outward -->
    <rect x="88" y="46" width="2" height="2" fill="#c8c0b4"/>
    <rect x="100" y="46" width="2" height="2" fill="#c8c0b4"/>
    <rect x="88" y="49" width="2" height="2" fill="#c8c0b4"/>
    <rect x="100" y="49" width="2" height="2" fill="#c8c0b4"/>
    <rect x="88" y="52" width="2" height="2" fill="#b8b0a4"/>
    <rect x="100" y="52" width="2" height="2" fill="#b8b0a4"/>
    <!-- Jaw tips -->
    <rect x="88" y="55" width="2" height="2" fill="#e8e0d4"/>
    <rect x="100" y="55" width="2" height="2" fill="#e8e0d4"/>
  </g>

  <!-- === TOOL 5: SAW (bottom shelf) — laying across pegs row7 === -->
  <g fill="#b8b0a4">
    <!-- Blade horizontal -->
    <rect x="22" y="79" width="2" height="2"/>
    <rect x="25" y="79" width="2" height="2"/>
    <rect x="28" y="79" width="2" height="2"/>
    <rect x="31" y="79" width="2" height="2"/>
    <rect x="34" y="79" width="2" height="2"/>
    <rect x="37" y="79" width="2" height="2"/>
    <rect x="40" y="79" width="2" height="2"/>
    <rect x="43" y="79" width="2" height="2"/>
    <rect x="46" y="79" width="2" height="2"/>
    <rect x="49" y="79" width="2" height="2"/>
    <rect x="52" y="79" width="2" height="2"/>
    <rect x="55" y="79" width="2" height="2"/>
    <!-- Teeth -->
    <rect x="22" y="82" width="2" height="2" fill="#8a8478" opacity="0.6"/>
    <rect x="28" y="82" width="2" height="2" fill="#8a8478" opacity="0.6"/>
    <rect x="34" y="82" width="2" height="2" fill="#8a8478" opacity="0.6"/>
    <rect x="40" y="82" width="2" height="2" fill="#8a8478" opacity="0.6"/>
    <rect x="46" y="82" width="2" height="2" fill="#8a8478" opacity="0.6"/>
    <rect x="52" y="82" width="2" height="2" fill="#8a8478" opacity="0.6"/>
    <!-- Handle -->
    <rect x="55" y="76" width="2" height="2" fill="#c8c0b4"/>
    <rect x="58" y="76" width="2" height="2" fill="#c8c0b4"/>
    <rect x="58" y="79" width="2" height="2" fill="#d4ccc0"/>
    <rect x="61" y="79" width="2" height="2" fill="#d4ccc0"/>
    <rect x="58" y="82" width="2" height="2" fill="#c8c0b4"/>
    <rect x="55" y="82" width="2" height="2" fill="#c8c0b4"/>
  </g>

  <!-- === SMALL ITEMS: nails/screws on bottom row === -->
  <g fill="#8a8478" opacity="0.7">
    <rect x="76" y="88" width="2" height="2"/>
    <rect x="76" y="91" width="2" height="2"/>
    <rect x="76" y="94" width="2" height="2" fill="#e8e0d4" opacity="0.5"/>

    <rect x="82" y="91" width="2" height="2"/>
    <rect x="82" y="94" width="2" height="2" fill="#e8e0d4" opacity="0.5"/>

    <rect x="88" y="88" width="2" height="2"/>
    <rect x="88" y="91" width="2" height="2"/>
    <rect x="88" y="94" width="2" height="2" fill="#e8e0d4" opacity="0.5"/>
  </g>

</svg>